<?xml version="1.0" standalone="no"?>
<!DOCTYPE svg PUBLIC "-//W3C//DTD SVG 20010904//EN"
 "http://www.w3.org/TR/2001/REC-SVG-20010904/DTD/svg10.dtd">
<svg version="1.0" xmlns="http://www.w3.org/2000/svg"
 width="500.000000pt" height="500.000000pt" viewBox="0 0 500.000000 500.000000"
 preserveAspectRatio="xMidYMid meet">

<g transform="translate(0.000000,500.000000) scale(0.100000,-0.100000)"
fill="#000000" stroke="none">
<path d="M4315 3536 c-152 -24 -249 -70 -329 -156 -84 -92 -131 -211 -144
-373 l-7 -78 -59 -20 c-159 -54 -280 -188 -316 -350 -19 -84 -9 -250 19 -322
101 -260 410 -378 669 -257 178 83 272 239 272 449 -1 166 -35 256 -140 362
-73 73 -144 113 -238 132 l-63 13 60 12 c249 52 388 227 416 525 l7 77 -33 -1
c-19 -1 -70 -7 -114 -13z m-313 -820 c67 -20 114 -60 145 -124 25 -51 28 -67
28 -162 0 -90 -3 -112 -23 -152 -92 -186 -349 -183 -433 4 -33 74 -34 230 -3
299 28 61 87 116 143 134 59 18 88 18 143 1z"/>
<path d="M1012 3283 c-5 -16 -114 -314 -242 -663 -128 -349 -235 -643 -237
-652 -5 -16 5 -18 118 -18 l124 0 56 158 56 157 270 3 270 2 55 -157 54 -158
128 -3 c101 -2 127 0 124 10 -3 7 -115 313 -249 680 l-244 668 -137 0 -136 0
-10 -27z m246 -528 c50 -143 93 -268 97 -277 7 -17 -6 -18 -194 -18 -111 0
-201 3 -201 8 -1 22 194 562 200 555 4 -4 48 -125 98 -268z"/>
<path d="M3445 3204 c21 -172 118 -269 281 -282 l62 -5 -5 49 c-7 70 -30 136
-63 182 -38 53 -133 100 -218 109 l-64 6 7 -59z"/>
<path d="M2115 2916 c-70 -23 -120 -53 -164 -101 -67 -73 -86 -124 -86 -230 1
-98 15 -139 77 -218 l30 -37 -87 -91 c-60 -64 -85 -97 -83 -112 3 -18 77 -78
110 -89 8 -3 -1 -17 -23 -36 -19 -17 -48 -55 -64 -84 -24 -44 -29 -64 -28
-119 1 -165 124 -263 363 -290 305 -35 520 100 520 327 0 55 -5 81 -26 122
-55 111 -127 140 -449 181 -102 13 -155 29 -155 45 0 6 15 26 33 44 l32 31 68
-11 c83 -14 189 1 264 38 140 68 217 228 180 376 -8 35 -18 71 -22 81 -6 15
-1 17 43 17 27 0 64 3 81 6 l31 7 0 67 0 68 -197 6 c-109 4 -245 8 -303 11
-71 3 -118 0 -145 -9z m225 -188 c65 -34 85 -67 85 -143 0 -49 -5 -70 -21 -91
-66 -89 -243 -90 -307 -2 -27 36 -34 125 -14 164 46 88 162 120 257 72z m-95
-763 c39 -4 94 -13 123 -21 64 -18 92 -55 92 -123 0 -35 -6 -49 -33 -76 -85
-85 -290 -83 -379 2 -55 53 -45 136 24 198 33 31 45 36 72 31 17 -2 63 -8 101
-11z"/>
<path d="M3291 2914 c-25 -9 -61 -26 -81 -39 -38 -24 -130 -120 -130 -136 0
-5 -4 -9 -9 -9 -4 0 -11 33 -15 73 -11 115 -2 107 -122 107 l-104 0 0 -480 0
-480 120 0 120 0 0 258 c0 274 6 320 49 381 35 49 120 84 217 89 l84 5 0 123
0 124 -42 0 c-24 -1 -63 -8 -87 -16z"/>
<path d="M3208 1869 c-21 -12 -24 -49 -6 -67 18 -18 53 -14 73 8 17 18 17 21
1 45 -17 26 -40 31 -68 14z"/>
<path d="M3690 1640 l0 -240 40 0 39 0 3 86 3 87 69 -87 c68 -84 70 -86 113
-86 53 0 53 -2 -40 102 l-69 78 67 75 67 75 -44 0 c-42 0 -47 -3 -99 -64 -30
-36 -57 -65 -61 -65 -5 -1 -8 62 -8 139 l0 140 -40 0 -40 0 0 -240z"/>
<path d="M2830 1635 l0 -235 40 0 40 0 0 95 0 95 79 0 c65 0 84 4 112 23 43
29 59 60 59 120 0 40 -5 53 -32 82 -39 41 -94 55 -219 55 l-79 0 0 -235z m235
145 c11 -12 19 -36 19 -57 0 -53 -30 -73 -110 -73 l-64 0 0 75 0 75 68 0 c57
0 72 -4 87 -20z"/>
<path d="M3442 1730 c-19 -4 -49 -23 -68 -41 -111 -108 -40 -289 113 -289 61
0 102 17 132 56 31 39 27 54 -14 54 -23 0 -42 -8 -59 -25 -56 -56 -146 -9
-146 75 0 72 31 109 92 110 27 0 41 -6 56 -25 23 -29 92 -37 92 -10 0 29 -59
82 -104 94 -50 12 -47 12 -94 1z"/>
<path d="M3200 1565 l0 -165 40 0 40 0 0 165 0 165 -40 0 -40 0 0 -165z"/>
</g>
</svg>
